<?xml version="1.0" standalone="no"?>
<!DOCTYPE svg PUBLIC "-//W3C//DTD SVG 20010904//EN"
 "http://www.w3.org/TR/2001/REC-SVG-20010904/DTD/svg10.dtd">
<svg version="1.0" xmlns="http://www.w3.org/2000/svg"
 width="64.000000pt" height="64.000000pt" viewBox="0 0 64.000000 64.000000"
 preserveAspectRatio="xMidYMid meet">
<metadata>
Created by potrace 1.14, written by Peter Selinger 2001-2017
</metadata>
<g transform="translate(0.000000,64.000000) scale(0.100000,-0.100000)"
fill="#000000" stroke="none">
<path d="M245 631 c-90 -22 -173 -90 -215 -176 -34 -72 -34 -198 0 -270 31
-64 91 -124 155 -155 41 -20 65 -25 135 -24 72 0 93 4 136 26 75 39 107 70
145 140 31 57 34 71 34 148 0 79 -3 90 -36 150 -71 130 -214 195 -354 161z
m212 -42 c105 -50 165 -148 167 -269 0 -56 -5 -78 -32 -133 -37 -75 -73 -109
-152 -146 -122 -56 -279 -16 -361 93 -112 148 -70 359 87 448 99 55 187 57
291 7z"/>
<path d="M274 595 c-4 -8 -10 -12 -15 -9 -6 3 -16 1 -23 -5 -7 -6 -21 -9 -29
-5 -47 18 -167 -117 -167 -188 0 -13 -3 -42 -6 -65 -7 -48 8 -102 43 -156 25
-40 44 -46 24 -8 -9 16 -8 26 5 46 9 14 23 25 30 25 8 0 19 11 24 24 5 13 14
27 20 31 17 10 -38 60 -87 80 -39 16 -41 18 -32 47 4 17 11 33 15 37 4 3 4 -2
1 -11 -3 -10 -2 -20 4 -23 5 -4 8 -3 7 2 -6 21 27 54 79 79 32 16 61 27 64 27
3 -1 22 2 42 7 23 5 35 4 31 -2 -3 -5 0 -15 6 -23 9 -11 9 -15 1 -15 -6 0 -11
-7 -11 -14 0 -8 -16 -27 -35 -42 -19 -14 -35 -32 -35 -38 0 -21 43 -54 74 -58
25 -2 31 -9 38 -38 16 -66 31 -110 40 -110 4 0 17 9 27 19 11 11 21 17 24 15
2 -2 10 4 18 13 13 16 12 17 -3 4 -32 -24 -19 -2 23 41 23 24 48 42 56 40 11
-3 12 1 4 17 -14 26 -14 28 4 28 9 0 14 -6 11 -14 -6 -15 10 -18 19 -3 8 14
24 3 36 -24 7 -15 8 -7 5 32 -9 94 -67 177 -158 223 l-39 20 -56 -26 c-60 -27
-118 -34 -110 -12 2 7 20 12 43 11 21 -1 33 1 26 3 -10 4 -10 8 -1 19 9 11 7
14 -10 14 -12 0 -24 -7 -27 -15z"/>
</g>
</svg>
