<?xml version="1.0" encoding="utf-8"?>
<!-- Generator: Adobe Illustrator 21.0.2, SVG Export Plug-In . SVG Version: 6.00 Build 0)  -->
<svg version="1.1" id="Layer_1"
	 xmlns="http://www.w3.org/2000/svg"  x="0px" y="0px" width="400px" height="400px"
	 viewBox="0 0 400 400" style="enable-background:new 0 0 400 400;" xml:space="preserve">
<style type="text/css">
	.st0{fill:#B1181E;}
	.st1{fill:#FFFFFF;}
	.st2{fill:#838A8F;}
</style>
<metadata>
	<sfw  xmlns="&ns_sfw;">
		<slices></slices>
		<sliceSourceBounds  bottomLeftOrigin="true" height="386" width="386" x="7.1" y="-392.4"></sliceSourceBounds>
	</sfw>
</metadata>
<circle class="st0" cx="200.2" cy="199.4" r="193"/>
<g>
	<path class="st1" d="M65.2,80.4h32.6v173.5c0,9.5,0.8,16.2,2.5,20.1c1.7,3.9,4.4,7.1,8.2,9.4c3.8,2.4,8.4,3.5,13.8,3.5
		c5.7,0,10.6-1.3,14.8-3.9c4.1-2.6,7-5.9,8.6-10c1.6-4.1,2.4-11.8,2.4-23.2v-141l32.6,46v90.4c0,17.1-1,29-2.9,35.7
		c-1.9,6.6-5.6,13.1-11.1,19.2c-5.5,6.2-11.7,10.7-18.8,13.7c-7.1,3-15.4,4.5-24.8,4.5c-12.4,0-23.1-2.8-32.3-8.5
		c-9.1-5.7-15.7-12.8-19.6-21.3c-3.9-8.5-5.9-23-5.9-43.3V80.4z"/>
	<polygon class="st1" points="214.6,247.6 214.6,225.1 214.6,202.9 230.4,225.2 	"/>
	<polygon class="st2" points="255.5,255.3 298.3,314.1 335.1,314.1 272.2,225.2 335.1,136.3 298.3,136.3 255.5,195.2 173.2,80.4
		136.5,80.4 238.9,225.2 176,314.1 212.8,314.1 	"/>
</g>
</svg>
